<svg id="svg" version="1.1" width="400" height="400" viewBox="0 0 400 400" xmlns="http://www.w3.org/2000/svg" xmlns:xlink="http://www.w3.org/1999/xlink"><g id="svgg"><path id="path0" d="M94.000 0.997 C 40.348 7.490,7.390 40.589,0.992 94.400 L 0.017 102.600 0.008 199.592 C 0.000 294.491,0.018 296.745,0.814 303.992 C 3.926 332.301,12.747 351.954,30.183 369.430 C 41.336 380.608,51.112 386.691,68.400 393.213 C 74.532 395.526,85.453 397.610,99.200 399.090 C 109.348 400.182,289.739 400.182,300.200 399.090 C 331.872 395.783,351.727 387.269,369.400 369.416 C 388.186 350.439,396.312 330.636,399.277 296.600 C 400.038 287.872,400.040 112.258,399.280 103.200 C 397.068 76.847,392.528 61.685,382.093 45.800 C 364.839 19.535,339.995 5.125,304.858 1.002 L 296.315 -0.000 198.858 0.051 L 101.400 0.101 94.000 0.997 M132.861 50.700 C 133.182 51.085,133.659 51.850,133.919 52.400 C 134.180 52.950,135.208 54.660,136.204 56.200 C 137.201 57.740,138.195 59.360,138.414 59.800 C 138.633 60.240,139.164 61.140,139.595 61.800 C 140.025 62.460,140.752 63.630,141.209 64.400 C 141.666 65.170,142.616 66.742,143.320 67.894 C 144.024 69.046,145.319 71.183,146.197 72.644 C 148.233 76.030,148.152 76.014,152.297 73.887 C 155.233 72.380,158.086 71.117,163.800 68.794 C 164.726 68.417,169.438 66.840,173.200 65.647 C 176.779 64.512,184.819 62.564,188.200 62.012 C 189.740 61.761,191.876 61.363,192.947 61.129 C 199.302 59.737,227.483 59.739,232.107 61.132 C 232.818 61.346,234.840 61.732,236.600 61.988 C 249.704 63.898,270.238 71.464,281.400 78.493 C 282.720 79.325,284.070 80.130,284.400 80.282 C 292.294 83.929,312.515 101.834,319.800 111.628 C 320.240 112.220,321.679 114.120,322.997 115.852 C 324.315 117.583,325.575 119.299,325.797 119.665 C 326.019 120.031,327.155 121.831,328.322 123.665 C 333.213 131.352,338.563 141.579,339.797 145.600 C 339.966 146.150,340.413 147.320,340.791 148.200 C 349.150 167.690,352.164 197.776,348.003 220.200 C 346.265 229.564,343.224 240.527,340.791 246.200 C 340.413 247.080,339.966 248.250,339.797 248.800 C 338.968 251.502,334.717 260.112,331.545 265.512 C 330.475 267.334,329.600 268.881,329.600 268.951 C 329.600 269.255,324.856 276.129,322.252 279.599 C 314.828 289.490,306.134 298.246,295.800 306.243 C 290.298 310.500,283.244 315.108,277.800 318.001 C 277.140 318.352,276.240 318.838,275.800 319.082 C 269.151 322.769,253.892 328.713,247.800 329.989 C 246.920 330.174,245.199 330.600,243.976 330.937 C 242.753 331.274,239.555 331.913,236.868 332.357 C 234.181 332.800,231.817 333.266,231.613 333.392 C 231.048 333.741,212.253 334.627,208.400 334.486 C 201.674 334.239,194.071 333.607,193.020 333.207 C 192.430 332.983,191.422 332.800,190.780 332.800 C 189.535 332.800,188.790 332.654,181.600 331.000 C 167.308 327.713,152.733 321.703,140.539 314.069 C 137.387 312.097,137.398 311.902,140.923 307.178 C 143.733 303.411,146.784 299.130,149.846 294.659 C 153.375 289.504,153.510 289.451,157.302 291.754 C 160.831 293.896,167.660 297.281,170.800 298.444 C 174.691 299.885,179.766 301.658,181.000 302.006 C 192.415 305.228,196.840 305.890,209.400 306.252 C 217.983 306.499,225.720 306.109,230.800 305.172 C 237.617 303.915,248.695 300.834,252.200 299.220 C 253.080 298.814,254.250 298.358,254.800 298.205 C 255.906 297.899,265.392 293.228,267.600 291.904 C 269.903 290.522,277.668 285.268,279.600 283.784 C 280.590 283.024,281.984 281.996,282.698 281.501 C 290.299 276.225,303.731 259.355,309.559 247.764 C 313.663 239.601,314.121 238.547,315.966 233.000 C 319.982 220.927,321.768 210.940,321.689 201.000 C 321.667 198.140,321.667 194.990,321.689 194.000 C 321.813 188.545,321.519 185.271,320.230 177.800 C 319.206 171.857,318.333 168.516,315.949 161.400 C 314.245 156.314,313.860 155.381,311.245 150.000 C 310.337 148.130,309.595 146.434,309.597 146.231 C 309.599 146.029,309.355 145.579,309.057 145.231 C 308.758 144.884,307.879 143.430,307.104 142.000 C 299.166 127.358,285.181 113.372,267.600 102.493 C 265.232 101.028,259.565 98.206,256.200 96.815 C 254.440 96.088,252.640 95.341,252.200 95.155 C 249.457 93.995,243.961 92.280,239.400 91.161 C 237.640 90.729,235.570 90.210,234.800 90.008 C 234.030 89.805,232.667 89.544,231.771 89.427 C 230.875 89.309,227.995 88.927,225.371 88.578 C 219.661 87.817,205.679 87.693,201.000 88.362 C 199.240 88.613,196.540 89.001,195.000 89.225 C 190.030 89.945,182.894 91.758,175.339 94.222 C 173.114 94.948,163.538 99.102,163.115 99.525 C 162.930 99.710,164.045 101.917,165.591 104.430 C 167.137 106.944,168.523 109.270,168.670 109.600 C 168.817 109.930,170.133 112.090,171.595 114.400 C 177.935 124.416,178.254 125.632,174.228 124.435 C 172.889 124.037,169.919 123.305,167.400 122.753 C 163.898 121.985,157.412 120.406,154.400 119.587 C 152.148 118.975,146.337 117.559,144.600 117.199 C 143.720 117.017,141.830 116.571,140.400 116.209 C 138.970 115.847,137.080 115.391,136.200 115.196 C 135.320 115.001,133.520 114.547,132.200 114.187 C 130.880 113.827,129.080 113.382,128.200 113.198 C 115.850 110.616,115.850 110.616,117.756 103.678 C 118.281 101.765,118.808 99.750,118.925 99.200 C 119.043 98.650,119.617 96.310,120.200 94.000 C 120.783 91.690,121.682 88.000,122.198 85.800 C 122.714 83.600,123.341 81.080,123.592 80.200 C 123.842 79.320,124.282 77.430,124.569 76.000 C 125.204 72.839,126.252 68.688,127.298 65.200 C 127.727 63.770,128.248 61.700,128.456 60.600 C 129.250 56.408,130.553 51.078,130.925 50.500 C 131.378 49.796,132.175 49.879,132.861 50.700 M260.166 153.741 C 263.330 155.814,263.637 156.799,263.609 164.769 C 263.578 173.441,263.118 177.416,261.266 185.000 C 257.127 201.957,241.221 218.641,221.400 226.816 C 218.975 227.816,217.618 228.362,216.000 228.987 C 215.010 229.369,213.930 229.815,213.600 229.977 C 213.049 230.247,211.730 230.644,206.200 232.202 C 205.100 232.512,203.300 233.028,202.200 233.348 C 201.100 233.669,199.660 234.047,199.000 234.188 C 198.340 234.329,196.630 234.707,195.200 235.026 C 193.770 235.346,191.652 235.777,190.494 235.984 C 189.336 236.191,188.210 236.470,187.993 236.604 C 187.775 236.739,186.383 237.002,184.899 237.190 C 183.414 237.377,180.850 237.726,179.200 237.966 C 177.550 238.206,174.940 238.585,173.400 238.808 C 169.433 239.383,162.142 239.987,154.000 240.416 C 150.150 240.619,143.760 240.955,139.800 241.163 C 135.840 241.371,126.705 241.555,119.500 241.571 C 112.295 241.587,106.400 241.688,106.400 241.797 C 106.400 241.905,107.019 242.804,107.775 243.795 C 110.504 247.370,109.462 254.467,106.014 255.787 C 105.676 255.916,104.770 256.368,104.000 256.792 C 100.337 258.806,94.760 256.762,92.789 252.682 C 91.305 249.610,91.719 245.977,93.900 242.933 C 94.395 242.242,94.800 241.569,94.800 241.438 C 94.800 241.307,90.240 241.200,84.667 241.200 C 73.358 241.200,70.943 240.904,67.247 239.068 C 61.310 236.119,58.548 230.182,58.282 219.800 L 58.200 216.600 57.000 216.600 L 55.800 216.600 55.600 228.178 L 55.400 239.756 54.073 240.531 C 52.507 241.445,50.980 240.926,50.348 239.264 C 50.140 238.715,50.031 224.923,50.093 206.732 L 50.200 175.154 51.200 174.386 C 52.488 173.396,53.246 173.406,54.546 174.429 L 55.600 175.258 55.600 186.629 L 55.600 198.000 56.967 198.000 L 58.335 198.000 58.520 193.100 C 58.875 183.679,61.401 178.649,67.247 175.721 C 70.593 174.045,71.375 173.941,82.203 173.735 L 91.407 173.560 92.758 170.710 C 95.869 164.151,104.228 159.144,114.000 157.985 C 124.956 156.686,129.026 156.681,138.600 157.955 C 142.097 158.420,149.664 160.595,152.000 161.806 C 152.550 162.091,154.080 162.836,155.400 163.462 C 156.720 164.088,158.927 165.365,160.304 166.300 C 161.681 167.235,162.924 168.000,163.066 168.000 C 163.208 168.000,163.914 168.450,164.636 169.000 C 165.357 169.550,166.052 170.000,166.181 170.000 C 166.310 170.000,167.087 170.414,167.908 170.919 C 171.958 173.414,171.228 173.335,192.800 173.597 C 206.164 173.759,213.034 173.988,213.934 174.301 C 216.244 175.103,218.597 176.683,221.444 179.346 C 222.960 180.763,224.249 181.877,224.308 181.820 C 224.583 181.558,225.600 175.355,225.600 173.940 C 225.600 172.247,226.661 168.533,227.248 168.170 C 227.442 168.051,227.606 167.648,227.614 167.276 C 227.649 165.517,232.172 160.981,236.000 158.868 C 237.312 158.144,243.930 156.000,244.853 156.000 C 245.249 156.000,246.164 155.751,246.886 155.447 C 249.091 154.519,252.154 153.596,253.020 153.598 C 253.471 153.599,254.011 153.437,254.220 153.239 C 255.179 152.327,258.427 152.601,260.166 153.741 " stroke="none" fill="#9bac4c" fill-rule="evenodd" data-index="0" style="visibility: visible; opacity: 1;"></path><path id="path1" d="M129.050 60.490 C 127.758 65.831,126.473 71.010,126.195 72.000 C 125.917 72.990,125.483 74.790,125.230 76.000 C 124.976 77.210,124.508 79.190,124.189 80.400 C 123.329 83.659,117.694 106.796,117.403 108.262 C 117.266 108.956,117.318 109.625,117.519 109.750 C 118.035 110.069,127.223 112.400,127.964 112.400 C 128.302 112.400,129.753 112.753,131.189 113.184 C 132.625 113.616,136.410 114.595,139.600 115.362 C 153.981 118.815,157.953 119.779,166.314 121.848 C 177.860 124.704,177.371 124.951,173.295 118.315 C 165.551 105.708,162.400 100.359,162.400 99.819 C 162.400 98.194,178.415 92.004,187.800 90.003 C 198.319 87.759,201.632 87.418,212.370 87.470 C 266.222 87.735,309.697 123.210,320.374 175.600 C 321.860 182.891,322.650 190.599,322.124 192.672 C 321.851 193.745,321.852 195.753,322.124 198.825 C 322.772 206.127,321.230 217.538,318.173 228.049 C 303.631 278.065,255.744 311.164,204.200 306.824 C 198.822 306.371,197.482 306.204,191.509 305.240 C 181.174 303.572,166.858 298.179,156.748 292.144 C 153.764 290.363,153.444 290.420,151.695 293.039 C 150.873 294.271,149.702 296.026,149.094 296.939 C 148.485 297.853,146.994 299.950,145.780 301.600 C 144.565 303.250,142.592 305.932,141.394 307.560 C 138.915 310.929,138.465 311.961,139.254 312.466 C 150.700 319.792,162.476 325.053,176.600 329.150 C 179.778 330.072,186.687 331.549,190.800 332.185 C 193.110 332.542,196.170 333.049,197.600 333.312 C 201.197 333.972,223.665 333.966,227.400 333.304 C 228.940 333.031,232.090 332.519,234.400 332.166 C 273.465 326.197,309.172 301.791,330.135 266.732 C 332.031 263.560,338.400 251.168,338.400 250.649 C 338.400 250.488,338.738 249.601,339.150 248.678 C 348.855 226.974,351.800 195.834,346.564 170.289 C 344.761 161.493,341.769 151.578,339.150 145.722 C 338.738 144.799,338.400 143.912,338.400 143.752 C 338.400 142.572,329.505 126.227,326.454 121.800 C 320.966 113.838,317.926 109.997,312.369 104.009 C 292.916 83.045,263.544 66.862,237.600 62.814 C 236.170 62.591,234.100 62.245,233.000 62.044 C 226.156 60.799,223.265 60.601,212.200 60.621 C 200.582 60.642,200.101 60.680,189.200 62.450 C 178.209 64.235,163.678 68.967,152.936 74.260 C 147.571 76.903,148.339 77.497,140.726 64.800 C 134.692 54.735,132.309 50.987,131.882 50.890 C 131.563 50.818,130.607 54.059,129.050 60.490 M252.800 154.369 C 251.590 154.760,248.530 155.673,246.000 156.396 C 237.352 158.870,236.685 159.135,233.748 161.266 C 228.617 164.988,226.606 169.525,225.772 179.261 C 225.381 183.838,225.049 183.901,221.089 180.153 C 219.101 178.271,216.719 176.456,215.346 175.778 L 213.000 174.619 193.200 174.379 C 182.310 174.247,172.950 174.003,172.400 173.837 C 170.387 173.229,166.906 171.383,163.046 168.876 C 157.313 165.153,154.041 163.463,148.200 161.209 C 139.758 157.950,121.260 156.929,111.800 159.200 C 100.699 161.865,95.484 165.582,92.648 172.851 L 92.081 174.303 81.941 174.480 C 70.594 174.679,69.224 174.943,65.676 177.611 C 61.261 180.932,59.600 185.109,59.600 192.892 C 59.600 198.797,59.599 198.800,57.200 198.800 C 54.683 198.800,54.800 199.360,54.800 187.331 C 54.800 175.526,54.688 174.800,52.866 174.800 C 50.715 174.800,50.800 173.460,50.800 207.400 C 50.800 241.322,50.717 240.000,52.856 240.000 C 54.546 240.000,54.587 239.740,54.800 227.609 L 55.000 216.218 56.100 215.832 C 56.807 215.584,57.593 215.583,58.300 215.831 L 59.400 216.217 59.625 222.209 C 59.999 232.157,62.501 236.472,69.564 239.348 C 71.184 240.007,72.916 240.119,84.300 240.295 C 91.395 240.405,97.200 240.594,97.200 240.716 C 97.200 240.838,96.415 241.689,95.456 242.608 C 88.409 249.360,96.072 260.191,104.700 255.674 C 109.564 253.127,109.854 243.677,105.115 242.173 C 102.607 241.377,105.079 240.996,113.233 240.922 C 126.326 240.804,151.339 239.996,155.600 239.553 C 157.690 239.336,161.650 238.992,164.400 238.788 C 170.765 238.315,175.866 237.772,179.186 237.212 C 180.624 236.970,183.420 236.498,185.400 236.163 C 187.380 235.828,190.080 235.307,191.400 235.005 C 192.720 234.703,194.880 234.243,196.200 233.983 C 197.520 233.722,199.410 233.281,200.400 233.002 C 201.390 232.723,203.370 232.177,204.800 231.788 C 209.804 230.427,211.419 229.928,213.800 229.006 C 218.500 227.186,222.230 225.628,224.298 224.621 C 225.452 224.060,226.484 223.600,226.591 223.600 C 226.698 223.600,227.962 222.880,229.400 222.000 C 230.838 221.120,232.103 220.400,232.212 220.400 C 233.383 220.400,242.392 213.197,246.410 209.048 C 251.442 203.851,257.124 195.191,258.513 190.600 C 258.647 190.160,259.120 188.755,259.565 187.477 C 261.813 181.025,262.440 176.711,262.661 166.200 L 262.846 157.400 261.605 155.914 C 259.644 153.564,256.819 153.068,252.800 154.369 " stroke="none" fill="#fafafa" fill-rule="evenodd" data-index="1"></path><path id="path3" d="M130.925 50.500 C 130.553 51.078,129.250 56.408,128.456 60.600 C 128.248 61.700,127.727 63.770,127.298 65.200 C 126.252 68.688,125.204 72.839,124.569 76.000 C 124.282 77.430,123.842 79.320,123.592 80.200 C 123.341 81.080,122.714 83.600,122.198 85.800 C 121.682 88.000,120.783 91.690,120.200 94.000 C 119.617 96.310,119.043 98.650,118.925 99.200 C 118.808 99.750,118.281 101.765,117.756 103.678 C 115.850 110.616,115.850 110.616,128.200 113.198 C 129.080 113.382,130.880 113.827,132.200 114.187 C 133.520 114.547,135.320 115.001,136.200 115.196 C 137.080 115.391,138.970 115.847,140.400 116.209 C 141.830 116.571,143.720 117.017,144.600 117.199 C 146.337 117.559,152.148 118.975,154.400 119.587 C 157.412 120.406,163.898 121.985,167.400 122.753 C 169.919 123.305,172.889 124.037,174.228 124.435 C 178.254 125.632,177.935 124.416,171.595 114.400 C 170.133 112.090,168.817 109.930,168.670 109.600 C 168.523 109.270,167.137 106.944,165.591 104.430 C 164.045 101.917,162.930 99.710,163.115 99.525 C 163.538 99.102,173.114 94.948,175.339 94.222 C 182.894 91.758,190.030 89.945,195.000 89.225 C 196.540 89.001,199.240 88.614,201.000 88.364 C 202.760 88.113,205.640 87.921,207.400 87.936 C 210.058 87.958,210.397 87.894,209.400 87.559 C 205.983 86.407,189.304 89.082,178.800 92.467 C 170.520 95.134,162.400 98.775,162.400 99.819 C 162.400 100.359,165.551 105.708,173.295 118.315 C 177.371 124.951,177.860 124.704,166.314 121.848 C 157.953 119.779,153.981 118.815,139.600 115.362 C 136.410 114.595,132.625 113.616,131.189 113.184 C 129.753 112.753,128.302 112.400,127.964 112.400 C 127.223 112.400,118.035 110.069,117.519 109.750 C 117.318 109.625,117.266 108.956,117.403 108.262 C 117.694 106.796,123.329 83.659,124.189 80.400 C 124.508 79.190,124.976 77.210,125.230 76.000 C 125.483 74.790,125.917 72.990,126.195 72.000 C 126.473 71.010,127.758 65.831,129.050 60.490 C 130.607 54.059,131.563 50.818,131.882 50.890 C 132.309 50.987,134.692 54.735,140.726 64.800 C 148.339 77.497,147.571 76.903,152.936 74.260 C 163.678 68.967,178.209 64.235,189.200 62.450 C 200.101 60.680,200.582 60.642,212.200 60.621 C 223.265 60.601,226.156 60.799,233.000 62.044 C 234.100 62.245,236.170 62.591,237.600 62.814 C 263.544 66.862,292.916 83.045,312.369 104.009 C 317.926 109.997,320.966 113.838,326.454 121.800 C 329.505 126.227,338.400 142.572,338.400 143.752 C 338.400 143.912,338.738 144.799,339.150 145.722 C 350.818 171.817,352.367 209.707,342.938 238.380 C 341.812 241.804,339.901 246.999,339.150 248.678 C 338.738 249.601,338.400 250.488,338.400 250.649 C 338.400 251.168,332.031 263.560,330.135 266.732 C 309.172 301.791,273.465 326.197,234.400 332.166 C 232.090 332.519,228.940 333.031,227.400 333.304 C 223.665 333.966,201.197 333.972,197.600 333.312 C 196.170 333.049,193.110 332.542,190.800 332.185 C 186.687 331.549,179.778 330.072,176.600 329.150 C 162.476 325.053,150.700 319.792,139.254 312.466 C 138.465 311.961,138.915 310.929,141.394 307.560 C 142.592 305.932,144.565 303.250,145.780 301.600 C 146.994 299.950,148.485 297.853,149.094 296.939 C 153.870 289.769,153.333 290.106,156.748 292.144 C 166.858 298.179,181.174 303.572,191.509 305.240 C 197.482 306.204,198.822 306.371,204.200 306.824 C 255.751 311.164,303.543 278.134,318.180 228.049 C 320.591 219.801,322.443 208.336,322.323 202.400 L 322.262 199.400 321.965 202.800 C 320.855 215.525,319.486 222.419,315.966 233.000 C 314.121 238.547,313.663 239.601,309.559 247.764 C 303.731 259.355,290.299 276.225,282.698 281.501 C 281.984 281.996,280.590 283.024,279.600 283.784 C 272.687 289.093,259.038 297.030,254.800 298.205 C 254.250 298.358,253.080 298.814,252.200 299.220 C 248.695 300.834,237.617 303.915,230.800 305.172 C 218.876 307.371,198.114 306.546,186.200 303.401 C 179.894 301.736,178.309 301.226,170.800 298.444 C 167.660 297.281,160.831 293.896,157.302 291.754 C 153.510 289.451,153.375 289.504,149.846 294.659 C 146.784 299.130,143.733 303.411,140.923 307.178 C 137.398 311.902,137.387 312.097,140.539 314.069 C 152.733 321.703,167.308 327.713,181.600 331.000 C 188.790 332.654,189.535 332.800,190.780 332.800 C 191.422 332.800,192.430 332.983,193.020 333.207 C 194.071 333.607,201.674 334.239,208.400 334.486 C 212.253 334.627,231.048 333.741,231.613 333.392 C 231.817 333.266,234.181 332.800,236.868 332.357 C 239.555 331.913,242.753 331.274,243.976 330.937 C 245.199 330.600,246.920 330.174,247.800 329.989 C 253.892 328.713,269.151 322.769,275.800 319.082 C 276.240 318.838,277.140 318.352,277.800 318.001 C 296.763 307.924,314.562 291.557,327.352 272.439 C 328.588 270.590,329.600 269.021,329.600 268.951 C 329.600 268.881,330.475 267.334,331.545 265.512 C 334.717 260.112,338.968 251.502,339.797 248.800 C 339.966 248.250,340.413 247.080,340.791 246.200 C 343.224 240.527,346.265 229.564,348.003 220.200 C 352.164 197.776,349.150 167.690,340.791 148.200 C 340.413 147.320,339.966 146.150,339.797 145.600 C 338.563 141.579,333.213 131.352,328.322 123.665 C 327.155 121.831,326.019 120.031,325.797 119.665 C 325.575 119.299,324.315 117.583,322.997 115.852 C 321.679 114.120,320.240 112.220,319.800 111.628 C 312.515 101.834,292.294 83.929,284.400 80.282 C 284.070 80.130,282.720 79.325,281.400 78.493 C 270.238 71.464,249.704 63.898,236.600 61.988 C 234.840 61.732,232.818 61.346,232.107 61.132 C 227.483 59.739,199.302 59.737,192.947 61.129 C 191.876 61.363,189.740 61.761,188.200 62.012 C 184.819 62.564,176.779 64.512,173.200 65.647 C 169.438 66.840,164.726 68.417,163.800 68.794 C 158.086 71.117,155.233 72.380,152.297 73.887 C 148.152 76.014,148.233 76.030,146.197 72.644 C 145.319 71.183,144.024 69.046,143.320 67.894 C 142.616 66.742,141.666 65.170,141.209 64.400 C 140.752 63.630,140.025 62.460,139.595 61.800 C 139.164 61.140,138.633 60.240,138.414 59.800 C 138.195 59.360,137.201 57.740,136.204 56.200 C 135.208 54.660,134.180 52.950,133.919 52.400 C 132.880 50.207,131.626 49.411,130.925 50.500 M215.819 87.570 C 215.638 87.861,216.471 88.000,218.400 88.000 C 219.966 88.000,222.541 88.183,224.123 88.406 C 225.706 88.630,228.440 88.998,230.200 89.225 C 231.960 89.452,234.030 89.803,234.800 90.006 C 235.570 90.209,237.640 90.729,239.400 91.161 C 243.961 92.280,249.457 93.995,252.200 95.155 C 252.640 95.341,254.440 96.088,256.200 96.815 C 259.565 98.206,265.232 101.028,267.600 102.493 C 285.181 113.372,299.166 127.358,307.104 142.000 C 307.879 143.430,308.758 144.884,309.057 145.231 C 309.355 145.579,309.599 146.029,309.597 146.231 C 309.595 146.434,310.337 148.130,311.245 150.000 C 313.860 155.381,314.245 156.314,315.949 161.400 C 319.557 172.168,321.773 183.584,321.734 191.200 C 321.720 193.982,321.748 194.084,322.120 192.611 C 322.899 189.529,320.892 175.983,318.266 166.600 C 307.394 127.744,274.715 97.548,234.800 89.474 C 227.051 87.907,216.278 86.826,215.819 87.570 M255.400 152.722 C 254.960 152.808,254.429 153.040,254.220 153.239 C 254.011 153.437,253.471 153.599,253.020 153.598 C 252.154 153.596,249.091 154.519,246.886 155.447 C 246.164 155.751,245.249 156.000,244.853 156.000 C 239.326 156.000,227.687 163.613,227.614 167.276 C 227.606 167.648,227.442 168.051,227.248 168.170 C 226.661 168.533,225.600 172.247,225.600 173.940 C 225.600 175.355,224.583 181.558,224.308 181.820 C 224.249 181.877,222.960 180.763,221.444 179.346 C 218.597 176.683,216.244 175.103,213.934 174.301 C 213.034 173.988,206.164 173.759,192.800 173.597 C 171.228 173.335,171.958 173.414,167.908 170.919 C 167.087 170.414,166.310 170.000,166.181 170.000 C 166.052 170.000,165.357 169.550,164.636 169.000 C 163.914 168.450,163.208 168.000,163.066 168.000 C 162.924 168.000,161.681 167.235,160.304 166.300 C 158.927 165.365,156.720 164.088,155.400 163.462 C 154.080 162.836,152.550 162.091,152.000 161.806 C 149.664 160.595,142.097 158.420,138.600 157.955 C 129.026 156.681,124.956 156.686,114.000 157.985 C 104.228 159.144,95.869 164.151,92.758 170.710 L 91.407 173.560 82.203 173.735 C 71.375 173.941,70.593 174.045,67.247 175.721 C 61.401 178.649,58.875 183.679,58.520 193.100 L 58.335 198.000 56.967 198.000 L 55.600 198.000 55.600 186.629 L 55.600 175.258 54.546 174.429 C 53.246 173.406,52.488 173.396,51.200 174.386 L 50.200 175.154 50.093 206.732 C 50.031 224.923,50.140 238.715,50.348 239.264 C 50.980 240.926,52.507 241.445,54.073 240.531 L 55.400 239.756 55.600 228.178 L 55.800 216.600 57.000 216.600 L 58.200 216.600 58.282 219.800 C 58.548 230.182,61.310 236.119,67.247 239.068 C 70.943 240.904,73.358 241.200,84.667 241.200 C 90.240 241.200,94.800 241.307,94.800 241.438 C 94.800 241.569,94.395 242.242,93.900 242.933 C 90.147 248.170,91.878 254.599,97.719 257.118 C 99.376 257.832,102.393 257.676,104.000 256.792 C 104.770 256.368,105.676 255.916,106.014 255.787 C 109.462 254.467,110.504 247.370,107.775 243.795 C 107.019 242.804,106.400 241.905,106.400 241.797 C 106.400 241.688,112.295 241.587,119.500 241.571 C 126.705 241.555,135.840 241.371,139.800 241.163 C 143.760 240.955,150.150 240.619,154.000 240.416 C 162.142 239.987,169.433 239.383,173.400 238.808 C 174.940 238.585,177.550 238.206,179.200 237.966 C 180.850 237.726,183.414 237.377,184.899 237.190 C 186.383 237.002,187.775 236.739,187.993 236.604 C 188.210 236.470,189.336 236.191,190.494 235.984 C 191.652 235.777,193.770 235.346,195.200 235.026 C 196.630 234.707,198.340 234.329,199.000 234.188 C 199.660 234.047,201.100 233.669,202.200 233.348 C 203.300 233.028,205.100 232.512,206.200 232.202 C 211.730 230.644,213.049 230.247,213.600 229.977 C 213.930 229.815,215.010 229.369,216.000 228.987 C 217.618 228.362,218.975 227.816,221.400 226.816 C 239.681 219.276,253.735 205.573,259.849 189.328 C 263.886 178.601,265.162 158.609,262.020 155.297 C 260.199 153.378,257.476 152.318,255.400 152.722 M258.882 154.016 C 259.779 154.265,260.854 155.015,261.605 155.914 L 262.846 157.400 262.661 166.200 C 262.440 176.711,261.813 181.025,259.565 187.477 C 259.120 188.755,258.647 190.160,258.513 190.600 C 257.124 195.191,251.442 203.851,246.410 209.048 C 242.392 213.197,233.383 220.400,232.212 220.400 C 232.103 220.400,230.838 221.120,229.400 222.000 C 227.962 222.880,226.698 223.600,226.591 223.600 C 226.484 223.600,225.452 224.060,224.298 224.621 C 222.230 225.628,218.500 227.186,213.800 229.006 C 211.419 229.928,209.804 230.427,204.800 231.788 C 203.370 232.177,201.390 232.723,200.400 233.002 C 199.410 233.281,197.520 233.722,196.200 233.983 C 194.880 234.243,192.720 234.703,191.400 235.005 C 190.080 235.307,187.380 235.828,185.400 236.163 C 183.420 236.498,180.624 236.970,179.186 237.212 C 175.866 237.772,170.765 238.315,164.400 238.788 C 161.650 238.992,157.690 239.336,155.600 239.553 C 151.339 239.996,126.326 240.804,113.233 240.922 C 105.079 240.996,102.607 241.377,105.115 242.173 C 109.854 243.677,109.564 253.127,104.700 255.674 C 96.072 260.191,88.409 249.360,95.456 242.608 C 96.415 241.689,97.200 240.838,97.200 240.716 C 97.200 240.594,91.395 240.405,84.300 240.295 C 72.916 240.119,71.184 240.007,69.564 239.348 C 62.501 236.472,59.999 232.157,59.625 222.209 L 59.400 216.217 58.300 215.831 C 57.593 215.583,56.807 215.584,56.100 215.832 L 55.000 216.218 54.800 227.609 C 54.587 239.740,54.546 240.000,52.856 240.000 C 50.717 240.000,50.800 241.322,50.800 207.400 C 50.800 173.460,50.715 174.800,52.866 174.800 C 54.688 174.800,54.800 175.526,54.800 187.331 C 54.800 199.360,54.683 198.800,57.200 198.800 C 59.599 198.800,59.600 198.797,59.600 192.892 C 59.600 185.109,61.261 180.932,65.676 177.611 C 69.224 174.943,70.594 174.679,81.941 174.480 L 92.081 174.303 92.648 172.851 C 95.484 165.582,100.699 161.865,111.800 159.200 C 121.260 156.929,139.758 157.950,148.200 161.209 C 154.041 163.463,157.313 165.153,163.046 168.876 C 166.906 171.383,170.387 173.229,172.400 173.837 C 172.950 174.003,182.310 174.247,193.200 174.379 L 213.000 174.619 215.346 175.778 C 216.719 176.456,219.101 178.271,221.089 180.153 C 225.049 183.901,225.381 183.838,225.772 179.261 C 226.606 169.525,228.617 164.988,233.748 161.266 C 236.685 159.135,237.352 158.870,246.000 156.396 C 248.530 155.673,251.590 154.760,252.800 154.369 C 255.377 153.535,256.844 153.450,258.882 154.016 " stroke="none" fill="#bac58b" fill-rule="evenodd" data-index="3" style="visibility: visible;"></path><path id="path4" d="M93.000 0.608 C 85.564 1.476,72.632 4.168,70.800 5.228 C 69.796 5.809,70.978 5.642,73.658 4.824 C 77.980 3.503,87.902 1.670,94.400 0.991 C 97.810 0.634,100.780 0.280,101.000 0.203 C 101.909 -0.115,97.099 0.129,93.000 0.608 M298.200 0.205 C 298.420 0.282,301.480 0.645,305.000 1.010 C 308.520 1.375,313.539 2.107,316.152 2.637 C 318.766 3.167,321.181 3.600,321.519 3.600 C 324.488 3.600,313.557 1.479,306.002 0.589 C 301.486 0.057,297.182 -0.155,298.200 0.205 M399.502 48.700 C 399.400 97.310,399.399 97.390,398.694 91.800 C 393.709 52.236,369.589 19.713,336.400 7.806 C 329.501 5.331,322.886 3.380,322.547 3.720 C 322.461 3.806,324.418 4.458,326.895 5.170 C 360.460 14.809,386.191 41.131,394.960 74.800 C 397.517 84.620,398.872 95.052,399.737 111.600 C 399.800 112.810,399.885 88.195,399.926 56.900 C 399.967 25.605,399.911 0.000,399.802 0.000 C 399.692 0.000,399.557 21.915,399.502 48.700 M67.000 6.367 C 45.016 14.184,26.213 29.466,14.789 48.800 C 13.116 51.631,8.596 60.698,8.209 62.000 C 8.045 62.550,7.668 63.540,7.370 64.200 C 5.700 67.903,2.870 78.259,1.979 83.926 C 1.294 88.282,1.747 87.789,2.560 83.294 C 8.926 48.103,32.379 19.757,65.200 7.587 C 67.730 6.649,69.875 5.818,69.967 5.740 C 70.382 5.390,68.820 5.720,67.000 6.367 M0.870 90.682 C 0.413 94.025,-0.100 101.663,0.178 101.000 C 0.270 100.780,0.650 97.757,1.022 94.282 C 1.723 87.726,1.618 85.221,0.870 90.682 M399.595 289.500 C 399.515 339.885,373.855 378.650,331.000 393.125 C 320.402 396.705,304.959 399.203,290.200 399.726 C 288.440 399.788,312.425 399.875,343.500 399.920 L 400.000 400.000 400.000 343.200 C 400.000 311.960,399.910 286.400,399.800 286.400 C 399.690 286.400,399.598 287.795,399.595 289.500 M0.042 299.600 C -0.006 302.723,1.104 312.229,1.473 311.860 C 1.663 311.670,0.490 299.388,0.207 298.600 C 0.128 298.380,0.054 298.830,0.042 299.600 M399.600 351.000 L 399.600 399.600 351.100 399.552 C 321.740 399.522,303.547 399.366,305.000 399.155 C 306.320 398.963,308.750 398.612,310.400 398.376 C 359.895 391.284,393.030 356.930,398.821 306.700 C 399.093 304.335,399.380 302.400,399.458 302.400 C 399.536 302.400,399.600 324.270,399.600 351.000 M1.640 312.704 C 1.562 313.681,2.851 320.961,3.211 321.577 C 3.525 322.113,3.575 322.116,3.569 321.600 C 3.560 320.733,1.689 312.103,1.640 312.704 M4.045 324.600 C 4.028 325.040,4.633 327.290,5.388 329.600 C 18.147 368.629,48.938 393.314,91.600 398.716 C 96.951 399.394,96.555 399.402,48.400 399.602 L -0.200 399.805 56.200 399.840 C 87.220 399.859,109.990 399.742,106.800 399.578 C 101.615 399.313,91.754 398.361,88.000 397.763 C 81.309 396.698,71.767 394.483,68.400 393.213 C 51.112 386.691,41.336 380.608,30.183 369.430 C 17.905 357.124,10.028 343.744,4.851 326.400 C 4.424 324.970,4.061 324.160,4.045 324.600 " stroke="none" fill="#4c541e" fill-rule="evenodd" data-index="4" style="visibility: visible;"></path></g></svg>